<svg xmlns="http://www.w3.org/2000/svg" viewBox="0 0 446.55 446.55"><defs><style>.cls-1{font-size:48px;fill:#a08a71;font-family:Bauhaus93, "Bauhaus 93";}</style></defs><title>Asset 3</title><g id="Layer_2" data-name="Layer 2"><g id="Text"><text class="cls-1" transform="translate(53.91 152.08) rotate(-63.41)">*</text><text class="cls-1" transform="matrix(0.57, -0.82, 0.82, 0.57, 69.35, 123.57)"> </text><text class="cls-1" transform="translate(81.04 106.82) rotate(-46.25)">A</text><text class="cls-1" transform="matrix(0.8, -0.6, 0.6, 0.8, 107.25, 81.17)">L</text><text class="cls-1" transform="translate(127.3 66.9) rotate(-29.08)">L</text><text class="cls-1" transform="translate(148.75 55.18) rotate(-19.48)">A</text><text class="cls-1" transform="translate(183.37 43.8) rotate(-8.06)">N</text><text class="cls-1" transform="translate(219.74 39.92) rotate(0.93)"> </text><text class="cls-1" transform="translate(240.33 40.51) rotate(8.36)">S</text><text class="cls-1" transform="translate(268.14 45.15) rotate(17.73)">E</text><text class="cls-1" transform="matrix(0.87, 0.5, -0.5, 0.87, 297.81, 54.66)">W</text><text class="cls-1" transform="translate(337.55 79.76) rotate(41.04)">I</text><text class="cls-1" transform="translate(355.73 95.82) rotate(50.48)">N</text><text class="cls-1" transform="translate(378.26 124.3) rotate(61.98)">G</text><text class="cls-1" transform="matrix(0.32, 0.95, -0.95, 0.32, 394.77, 158.22)"> </text><text class="cls-1" transform="matrix(0.14, 0.99, -0.99, 0.14, 401.78, 177.22)">M</text><text class="cls-1" transform="translate(407.09 223.72) rotate(94.51)">A</text><text class="cls-1" transform="translate(403.79 259.95) rotate(107.09)">C</text><text class="cls-1" transform="translate(389.69 301.58) rotate(119.88)">H</text><text class="cls-1" transform="matrix(-0.64, 0.77, -0.77, -0.64, 369.7, 333.8)">I</text><text class="cls-1" transform="translate(354.11 352.38) rotate(139)">N</text><text class="cls-1" transform="translate(326 375.52) rotate(149.55)">E</text><text class="cls-1" transform="translate(298.48 390.75) rotate(158.9)">S</text><text class="cls-1" transform="matrix(-0.97, 0.23, -0.23, -0.97, 271.71, 400.18)"> </text><text class="cls-1" transform="translate(251.76 404.74) rotate(174.89)">*</text><text class="cls-1" transform="translate(219.36 406.6) rotate(-176.95)"> </text><text class="cls-1" transform="matrix(-0.98, -0.19, 0.19, -0.98, 198.91, 405.31)">E</text><text class="cls-1" transform="matrix(-0.94, -0.35, 0.35, -0.94, 168.24, 398.42)">S</text><text class="cls-1" transform="matrix(-0.86, -0.5, 0.5, -0.86, 142.07, 388.09)">T</text><text class="cls-1" transform="matrix(-0.74, -0.67, 0.67, -0.74, 113.88, 371.37)">D</text><text class="cls-1" transform="translate(82.82 341.17) rotate(-128.17)"> </text><text class="cls-1" transform="translate(70.25 325.09) rotate(-119.43)">2</text><text class="cls-1" transform="translate(53.55 293.9) rotate(-108.33)">0</text><text class="cls-1" transform="translate(43.18 260.08) rotate(-97.22)">1</text><text class="cls-1" transform="translate(39.51 224.86) rotate(-86.29)">6</text><text class="cls-1" transform="matrix(0.22, -0.98, 0.98, 0.22, 43.02, 189.41)"> </text></g></g></svg>