<svg xmlns="http://www.w3.org/2000/svg" viewBox="0 0 353.01 353.01"><defs><style>.cls-1{fill:#4b3b3a;}.cls-2{fill:#f8f6f2;}.cls-3{fill:#a08a71;}</style></defs><title>Asset 4</title><g id="Layer_2" data-name="Layer 2"><g id="Text"><path class="cls-1" d="M286.38,226.76h-1.47v-10a9.53,9.53,0,0,0-9.77-9.27h-42l-1.35-1.73c-.15-.19-14.8-19.22-7.94-35.86a48.09,48.09,0,0,0,3.84-21.1c0-.22,0-.44-.07-.66h4.11v4.57a4.71,4.71,0,0,0,4.12,4.56v10.59a6,6,0,0,0,11.9,0v-22h.71a2.38,2.38,0,0,1,2.44,2.32V173.5a7.16,7.16,0,0,0,7.32,6.95h.61v.82a1.19,1.19,0,0,0,1.22,1.16,1.21,1.21,0,0,0,1.05-.59H262a2.26,2.26,0,0,0,1.46-.53,2.25,2.25,0,0,1,2-.46s10.22,1.61,11.7,1.83a4.65,4.65,0,1,0,0-9.1c-1.48.22-11.7,1.83-11.7,1.83a2.25,2.25,0,0,1-2-.46,2.26,2.26,0,0,0-1.46-.53h-.89a1.21,1.21,0,0,0-1.05-.59,1.19,1.19,0,0,0-1.22,1.15v.83h-.61a2.39,2.39,0,0,1-2.44-2.31V148.24a7.15,7.15,0,0,0-7.32-7h-.71v-22a6,6,0,0,0-11.9,0v10.6a4.71,4.71,0,0,0-4.12,4.56v4.57h-6.7a25.83,25.83,0,0,0-20.41-13.78A48.3,48.3,0,0,0,199,125v-3.57h3.71a2.13,2.13,0,0,0,2.19-2.07,2.1,2.1,0,0,0-1.67-2V107.26a2.1,2.1,0,0,0,1.67-2,2.13,2.13,0,0,0-2.19-2.07H199V101h-1.22V95.92h-1.22V101h-1.22v2.2h-3.71a2.13,2.13,0,0,0-2.19,2.07,2.09,2.09,0,0,0,1.67,2v10.12a2.09,2.09,0,0,0-1.67,2,2.13,2.13,0,0,0,2.19,2.07h3.71v3.72a55.94,55.94,0,0,0-8.38,1.22c-.36.09-36,8.63-58.66,4.87-14.86-2.25-19.47-9.11-20.76-12a6.7,6.7,0,0,0-6.15-3.81h-2.3v-8.44a1.83,1.83,0,0,0-3.66,0v8.44H92.05a3.23,3.23,0,0,0-3.3,3.13v20.81H80.07a2.67,2.67,0,0,0,.22-1.05,2.94,2.94,0,1,0-2.94,2.78h11.4v36.29a3.22,3.22,0,0,0,3.3,3.13h5.26v9a1.19,1.19,0,0,0,1.22,1.16h.3l.51,12,.5-12h.31a1.19,1.19,0,0,0,1.22-1.16v-2.32h1.48a.35.35,0,0,0,.35.32h.8a1.74,1.74,0,0,0,1,1.27c.87.4,1.85.07,1.85-.89a1.52,1.52,0,0,0-.48-1.06.3.3,0,0,1,0-.43,1.52,1.52,0,0,0,.48-1.06c0-1-1-1.29-1.85-.89a1.74,1.74,0,0,0-1,1.27h-.8a.35.35,0,0,0-.35.32h-1.48v-5.53h4.16a6.56,6.56,0,0,0,6.71-6.37v-5.76c0-5.48,2.47-9.62,7.47-12.28a24.68,24.68,0,0,1,8.17-2.56h0c29.65-1.68,45.94,2.49,54.39,6.28a14.2,14.2,0,0,1,8.42,15c-2.13,13.63-14.25,30.83-14.37,31l-1.15,1.61H77.87a9.52,9.52,0,0,0-9.76,9.27v10H66.63a2.43,2.43,0,0,0-2.49,2.36v8.79a2.43,2.43,0,0,0,2.49,2.36H286.38a2.42,2.42,0,0,0,2.49-2.36v-8.79A2.42,2.42,0,0,0,286.38,226.76ZM96.56,107.13a.66.66,0,0,1,.68-.65.67.67,0,0,1,.69.65v2.38a.67.67,0,0,1-.69.65.66.66,0,0,1-.68-.65ZM77.35,140a1.63,1.63,0,1,1,1.71-1.62A1.67,1.67,0,0,1,77.35,140Z"/><path class="cls-1" d="M191.82,108l-.48.38c-.32.24-.76.63-1.41,1.08a35.71,35.71,0,0,1-5.85,3.48,39.34,39.34,0,0,1-10.16,3.17,56.68,56.68,0,0,1-13.84.56,113,113,0,0,1-16.16-2.5c-5.66-1.23-11.55-2.82-17.65-4.4a161,161,0,0,0-19-4.06,49.35,49.35,0,0,0-10-.4,24,24,0,0,0-9.54,2.61,25.29,25.29,0,0,0-4,2.78,24.87,24.87,0,0,0-3.47,3.41,20.24,20.24,0,0,0-4.3,8.39,24.8,24.8,0,0,0-.31,9.24A43.15,43.15,0,0,0,78,140.58a107,107,0,0,0,7.57,15.69c2.74,4.84,5.5,9.34,8,13.53s4.68,8.08,6.41,11.63a51.74,51.74,0,0,1,3.7,9.49,21,21,0,0,1,.74,6.49,16.07,16.07,0,0,1-.23,1.7l-.12.58.07-.59a15.28,15.28,0,0,0,.1-1.7,23.93,23.93,0,0,0-.92-6.39,53.37,53.37,0,0,0-3.7-9.42c-1.73-3.54-3.93-7.41-6.41-11.6s-5.25-8.68-8-13.52a107.41,107.41,0,0,1-7.61-15.75,44.29,44.29,0,0,1-2.33-8.9,25.25,25.25,0,0,1,.31-9.4,20.76,20.76,0,0,1,4.38-8.58,24.72,24.72,0,0,1,3.54-3.47,25.74,25.74,0,0,1,4.12-2.84,24.46,24.46,0,0,1,9.74-2.67,49.52,49.52,0,0,1,10,.38,164.68,164.68,0,0,1,19.06,4.06c6.11,1.57,12,3.15,17.64,4.38a112,112,0,0,0,16.07,2.47,56.89,56.89,0,0,0,13.69-.56,39.35,39.35,0,0,0,10-3.14,35.45,35.45,0,0,0,5.74-3.42c.63-.44,1.08-.84,1.4-1.08l.48-.38Z"/><path class="cls-2" d="M197.15,107.85l3.8,0,1.73,0-1.73,0-3.8,0-3.8,0-1.73,0,1.73,0Z"/><path class="cls-2" d="M197.15,108.64l-3.8,0-1.73,0,1.73,0,3.8,0,3.8,0,1.73,0-1.73,0Z"/><path class="cls-2" d="M197.15,109.55l-3.8,0-1.73,0,1.73,0,3.8,0,3.8,0,1.73,0-1.73,0Z"/><path class="cls-2" d="M197.15,110.45l-3.8,0-1.73,0,1.73,0,3.8,0,3.8,0,1.73,0-1.73,0Z"/><path class="cls-2" d="M197.15,111.36l-3.8,0-1.73,0,1.73,0,3.8,0,3.8,0,1.73,0-1.73,0Z"/><path class="cls-2" d="M197.15,112.26l-3.8,0-1.73,0,1.73,0,3.8,0,3.8,0,1.73,0-1.73,0Z"/><path class="cls-2" d="M197.15,113.17l-3.8,0-1.73,0,1.73,0,3.8,0,3.8,0,1.73,0-1.73,0Z"/><path class="cls-2" d="M197.15,114.07l-3.8,0-1.73,0,1.73,0,3.8,0,3.8,0,1.73,0-1.73,0Z"/><path class="cls-2" d="M197.15,115l-3.8,0-1.73,0,1.73,0,3.8,0,3.8,0,1.73,0L201,115Z"/><path class="cls-2" d="M197.15,115.88l-3.8,0-1.73,0,1.73,0,3.8,0,3.8,0,1.73,0-1.73,0Z"/><path class="cls-2" d="M197.15,116.79l-3.8,0-1.73,0,1.73,0,3.8,0,3.8,0,1.73,0-1.73,0Z"/><path class="cls-2" d="M235.89,157.29v-9.65l-1,9.38A5.4,5.4,0,0,0,235.89,157.29Z"/><path class="cls-2" d="M227.67,148.16h.08c0-.36,0-.85,0-1.43a24.59,24.59,0,0,0-.61-4.63,25.79,25.79,0,0,0-.91-3h-1.13A24.38,24.38,0,0,1,227.67,148.16Z"/><path class="cls-2" d="M176.82,205.16l-.5.74-1.15,1.61h26.76Z"/><path class="cls-2" d="M219.2,138.31c3.35,4.62,4.17,10.09,3.75,15.59a45.56,45.56,0,0,1-1.58,8.65c-.73,2.65-1.88,5.16-2.68,7.79-3.2,10.4.09,21.35,5.3,30.61a56.94,56.94,0,0,1-5.06-16.22A33.21,33.21,0,0,1,221,168a44.81,44.81,0,0,0,3.39-17.38A21,21,0,0,0,218.45,136a21.9,21.9,0,0,0-13.52-6.16C210.67,131,215.82,133.64,219.2,138.31Z"/><path class="cls-2" d="M109.93,128.36c5.81,4.58,13.43,6.45,20.79,7.24a101.84,101.84,0,0,0,19.44-.25c-3.26-.08-6.54,0-9.8-.16-13.16-.5-30.07-3.1-36.94-15.31A20.15,20.15,0,0,0,109.93,128.36Z"/><path class="cls-2" d="M93,165.86c.45-15.24.44-30.53-.46-45.76q-.3,5.22-.45,10.46c-.45,15.24-.44,30.53.45,45.76Q92.82,171.1,93,165.86Z"/><path class="cls-2" d="M245.52,158.79c.47-13.7.42-27.47-.48-41.16q-.3,4.78-.46,9.57c-.45,13.69-.43,27.42.46,41.09C245.25,165.12,245.41,162,245.52,158.79Z"/><path class="cls-2" d="M246.92,226.43q-24-.17-47.91-.21-25.57,0-51.17,0-24,0-48,.25l-26,.27h.45c10.62.11,21.23.25,31.84.32q24,.16,47.91.21,25.59,0,51.17,0,24-.06,48-.26l26-.26h-.45Q262.84,226.54,246.92,226.43Z"/><path class="cls-2" d="M206.79,139.21c3.65,1.23,8.2,3.68,8.78,7.72s-3.21,7-6.58,8.55a33.11,33.11,0,0,1-11.6,2.7c5,.11,10.18-.57,14.5-3.17,3.68-2.21,6.37-6.21,4.43-10.34s-6.56-6.14-10.78-7.24c-8.09-2.09-19-1-24.88,5.26,3.31-2.87,7.67-4.27,12.06-4.8A32.68,32.68,0,0,1,206.79,139.21Z"/><path class="cls-2" d="M254.14,148c.19,3.64-.07,7.36-.08,11s0,7.4.08,11.1c0,1.6-.29,3.6.49,5.06a4,4,0,0,0,3.63,2.06,3.91,3.91,0,0,1-3.34-2c-.71-1.37-.37-3.21-.35-4.7.05-3.69.09-7.38.09-11.07s.09-7.39-.08-11.07a5.91,5.91,0,0,0-6.08-5.66A5.76,5.76,0,0,1,254.14,148Z"/><path class="cls-2" d="M279.13,174.52a5.37,5.37,0,0,0-2.67,0,95.82,95.82,0,0,0-10.62,2.23c4.09-.13,8.08-1,12.14-1.27a3.64,3.64,0,0,1,3.4,2.63A3.1,3.1,0,0,0,279.13,174.52Z"/><path class="cls-3" d="M21.24,250.22C45,309.73,105.52,352.05,176.51,352.05s131.54-42.32,155.26-101.83Z"/><path class="cls-2" d="M173.35,274.76a4.69,4.69,0,0,0-1.65-3.39,9.05,9.05,0,0,0-6.53-2.27,24.11,24.11,0,0,0-8.07,1.6,12.74,12.74,0,0,0-4,2.26q-2.62,2.27-2.62,4.53c0,2,1.28,3.83,3.85,5.45q1.44.87,5.79,2.85a64.82,64.82,0,0,1,6.35,3.21,11.35,11.35,0,0,1,4.19,4,8.23,8.23,0,0,1,1.15,3.91,9.76,9.76,0,0,1-1.69,5.24,25.47,25.47,0,0,1-8.74,8.23,30.42,30.42,0,0,1-16,4q-9,0-14.29-4.58a11.25,11.25,0,0,1-4.12-9,15.21,15.21,0,0,1,2.55-7.72,14.74,14.74,0,0,1,6.24-6,2,2,0,0,1,1.16-.21c.26.07,0,.4-.64,1a15.46,15.46,0,0,0-3.55,3.86,17.93,17.93,0,0,0-2.88,9.82,9.88,9.88,0,0,0,2,6.11q3.49,4.68,12.13,5.3c.65.07,1.62.1,2.9.1a27.34,27.34,0,0,0,5.25-.69,25.14,25.14,0,0,0,6.4-2.29q6.63-3.49,8.59-9.05a9.28,9.28,0,0,0,.61-3.19,7.89,7.89,0,0,0-3.14-6.16,34.48,34.48,0,0,0-6.91-3.58,52.3,52.3,0,0,1-7-3.42q-4-2.67-4-6.32,0-3.19,3.55-6.22,5.08-4.32,14.4-4.32a16.71,16.71,0,0,1,7.12,1.31,5.72,5.72,0,0,1,3.36,3.93,5.23,5.23,0,0,1,.11,1,4.68,4.68,0,0,1-1.85,3.6,9.9,9.9,0,0,1-3.45,1.65c-.61.17-1,.1-1-.21s.36-.72,1.29-.82a3.24,3.24,0,0,0,3-2.47A4.28,4.28,0,0,0,173.35,274.76Z"/><path class="cls-2" d="M185.48,307.36c0,1,.34,1.43,1,1.43q2.42,0,6.83-9c.24-.48.46-.67.65-.57a.45.45,0,0,1,.28.41,6,6,0,0,1-.59,1.47c-.4.81-.79,1.58-1.19,2.31s-1,1.71-1.72,2.91c-1.57,2.4-3.25,3.59-5,3.59a3.23,3.23,0,0,1-2.77-1.43,3.18,3.18,0,0,1-.46-1.83,9.76,9.76,0,0,1,.51-2.8,27.75,27.75,0,0,1,2.83-5.35,3.18,3.18,0,0,0,.56-1.46q0-.54-.87-.54c-.58,0-1.7.77-3.34,2.31A36.37,36.37,0,0,0,175,309c-.24.51-.87.77-1.9.77a5.16,5.16,0,0,0-1.75.31q9.76-20.31,14.14-28.33a10.75,10.75,0,0,1,1.72-2.52,2.48,2.48,0,0,1,1.78-.72,8.46,8.46,0,0,1,1.07.13,4.91,4.91,0,0,0,1.24.08q-1.54,1.59-5.53,8.82t-7.63,14.67a37.22,37.22,0,0,1,4.34-4.73,25.68,25.68,0,0,1,4.7-3.21,10.15,10.15,0,0,1,4.07-1.52,1.47,1.47,0,0,1,.56.11Q185.49,303.91,185.48,307.36Z"/><path class="cls-2" d="M202.75,291.68c2.51,0,3.76,1.57,3.76,4.73a11.07,11.07,0,0,1-1.14,4.62,18.15,18.15,0,0,1-4.31,6.07,2.46,2.46,0,0,0,2.41,1.28,3.52,3.52,0,0,0,2.62-1.38,14.4,14.4,0,0,0,2.22-2.81c.44-.8.77-1.39,1-1.77s.47-.91.8-1.62.52-1.13.59-1.28a.37.37,0,0,1,.36-.24c.34,0,.52.09.52.36a.78.78,0,0,1-.11.36l-.31.73c-.2.47-.36.82-.46,1l-.54,1.11c-.26.53-.48.95-.67,1.26s-.44.72-.77,1.23a12.11,12.11,0,0,1-.87,1.23c-.26.31-.58.66-.95,1a6.06,6.06,0,0,1-1.08.88,4.78,4.78,0,0,1-2.42.77,4.16,4.16,0,0,1-3.29-1.34,7.52,7.52,0,0,1-4.37,1.75q-3.75,0-3.75-4.73a11.09,11.09,0,0,1,1.13-4.63,17.11,17.11,0,0,1,4.34-6.11C199.3,292.51,201.07,291.68,202.75,291.68Zm.57,1.59c-.93,0-2,.62-3.29,1.85a17,17,0,0,0-3.4,5,14.88,14.88,0,0,0-1.79,6.06c0,1.58.6,2.37,1.79,2.37a4.65,4.65,0,0,0,2.89-1.39,4.23,4.23,0,0,1-.83-2.52c.07-1.47.67-2.21,1.8-2.21a1.47,1.47,0,0,1,1.11.47,1.28,1.28,0,0,1,.43.84,3.19,3.19,0,0,1-.1.8,30,30,0,0,0,2-3.65,11.71,11.71,0,0,0,1.28-5.14C205.22,294.11,204.59,293.27,203.32,293.27Z"/><path class="cls-2" d="M226,295.69a12.59,12.59,0,0,1-1.18,5,22,22,0,0,1-3.27,5.25,10.46,10.46,0,0,1-5.06,3.44,9.68,9.68,0,0,1-2.59.31,7,7,0,0,1-3.22-.93l-4.88,12.19a6.36,6.36,0,0,1-1.44,2.16,2.17,2.17,0,0,1-1.29.51h-.74a9,9,0,0,1-.93-.15,4,4,0,0,0-1.21-.1q1.14-1.08,5.74-10.26t5.21-12.36a1.72,1.72,0,0,1-1.08.87c-.2,0-.2-.2,0-.59s.55-1.16,1-2.29a10.61,10.61,0,0,0,.93-4.09c0-1.25-.24-2-.72-2.18a28,28,0,0,1,3.6-.49.63.63,0,0,1,.64.44,3.24,3.24,0,0,1,.13.92,20.19,20.19,0,0,1-1.44,7l1-1.64a26.66,26.66,0,0,1,2.7-3.86c.56-.58,1.17-1.18,1.82-1.8a4.26,4.26,0,0,1,2.88-1.44,2.76,2.76,0,0,1,.77.11Q226,292.34,226,295.69Zm-2.47-.52a3.52,3.52,0,0,0-.33-1.52,1.1,1.1,0,0,0-1.05-.69q-1.8,0-4.19,3.34A118.78,118.78,0,0,0,211.13,308a2.49,2.49,0,0,0,1.85.67c.79,0,1.9-.6,3.34-1.8a24.12,24.12,0,0,0,5.76-7.15A10.29,10.29,0,0,0,223.57,295.17Z"/><path class="cls-3" d="M176.51,353C79.18,353,0,273.83,0,176.51S79.18,0,176.51,0,353,79.18,353,176.51,273.83,353,176.51,353Zm0-343.41C84.47,9.6,9.6,84.47,9.6,176.51S84.47,343.42,176.51,343.42s166.91-74.88,166.91-166.91S268.54,9.6,176.51,9.6Z"/></g></g></svg>