<svg xmlns="http://www.w3.org/2000/svg" viewBox="0 0 446.55 446.55"><defs><style>.cls-1{fill:#4b3b3a;}.cls-2{fill:#f8f6f2;}.cls-3,.cls-4{fill:#a08a71;}.cls-4{font-size:48px;font-family:Bauhaus93, "Bauhaus 93";}</style></defs><title>Asset 2</title><g id="Layer_2" data-name="Layer 2"><g id="Text"><path class="cls-1" d="M333.15,273.52h-1.48v-10a9.52,9.52,0,0,0-9.76-9.26H280l-1.35-1.73c-.15-.19-14.8-19.23-8-35.86a48,48,0,0,0,3.85-21.1c0-.23-.05-.44-.07-.67h4.11v4.57a4.71,4.71,0,0,0,4.12,4.56v10.6a6,6,0,0,0,11.9,0v-22h.71a2.39,2.39,0,0,1,2.44,2.32v25.25a7.14,7.14,0,0,0,7.32,7h.61V228a1.19,1.19,0,0,0,1.22,1.16,1.22,1.22,0,0,0,1.05-.6h.89a2.26,2.26,0,0,0,1.46-.53,2.27,2.27,0,0,1,2-.46s10.22,1.62,11.7,1.83a4.65,4.65,0,1,0,0-9.09c-1.48.21-11.7,1.83-11.7,1.83a2.24,2.24,0,0,1-2-.46,2.26,2.26,0,0,0-1.46-.53h-.89a1.22,1.22,0,0,0-1.05-.6,1.19,1.19,0,0,0-1.22,1.16v.83H305a2.39,2.39,0,0,1-2.44-2.32V195a7.15,7.15,0,0,0-7.32-6.95h-.71v-22a6,6,0,0,0-11.9,0v10.6a4.71,4.71,0,0,0-4.12,4.56v4.57h-6.7a25.8,25.8,0,0,0-20.41-13.78,48.37,48.37,0,0,0-5.68-.26v-3.56h3.71a2.07,2.07,0,0,0,.52-4.09V154a2.11,2.11,0,0,0,1.67-2,2.14,2.14,0,0,0-2.19-2.08h-3.71v-2.19h-1.22v-5.07h-1.22v5.07h-1.22v2.19h-3.71a2.14,2.14,0,0,0-2.19,2.08,2.1,2.1,0,0,0,1.67,2v10.11a2.11,2.11,0,0,0-1.67,2,2.14,2.14,0,0,0,2.19,2.08h3.71V172a54.72,54.72,0,0,0-8.39,1.22c-.35.08-36,8.63-58.65,4.87-14.87-2.25-19.47-9.12-20.76-12a6.68,6.68,0,0,0-6.15-3.81h-2.3v-8.44a1.83,1.83,0,0,0-3.66,0v8.44h-3.37a3.22,3.22,0,0,0-3.29,3.13v20.8h-8.69a2.63,2.63,0,0,0,.22-1,2.94,2.94,0,1,0-2.93,2.79h11.4v36.29a3.22,3.22,0,0,0,3.29,3.13h5.26v9a1.19,1.19,0,0,0,1.22,1.16h.31l.51,12,.5-12h.31a1.19,1.19,0,0,0,1.22-1.16V234h1.48a.35.35,0,0,0,.35.31h.8a1.78,1.78,0,0,0,1,1.28c.88.4,1.86.07,1.86-.9a1.49,1.49,0,0,0-.49-1.06.31.31,0,0,1,0-.42,1.49,1.49,0,0,0,.49-1.06c0-1-1-1.3-1.86-.9a1.74,1.74,0,0,0-1,1.28H150a.35.35,0,0,0-.35.31h-1.48v-5.52h4.16A6.56,6.56,0,0,0,159,221v-5.77c0-5.48,2.47-9.61,7.47-12.28a25,25,0,0,1,8.17-2.56h0c29.64-1.67,45.94,2.5,54.39,6.29a14.19,14.19,0,0,1,8.42,15c-2.13,13.63-14.25,30.84-14.38,31l-1.14,1.62h-97.3a9.52,9.52,0,0,0-9.76,9.26v10H113.4a2.43,2.43,0,0,0-2.49,2.36v8.8A2.43,2.43,0,0,0,113.4,287H333.15a2.43,2.43,0,0,0,2.49-2.36v-8.8A2.43,2.43,0,0,0,333.15,273.52ZM143.33,153.89a.66.66,0,0,1,.68-.65.67.67,0,0,1,.69.65v2.39a.67.67,0,0,1-.69.65.66.66,0,0,1-.68-.65Zm-19.21,32.88a1.62,1.62,0,1,1,1.71-1.62A1.66,1.66,0,0,1,124.12,186.77Z"/><path class="cls-1" d="M238.58,154.78l-.47.38c-.33.24-.76.63-1.41,1.08a35.62,35.62,0,0,1-5.85,3.49,40.13,40.13,0,0,1-10.16,3.17,57.21,57.21,0,0,1-13.84.56,113,113,0,0,1-16.16-2.5c-5.66-1.24-11.55-2.82-17.65-4.41a165.27,165.27,0,0,0-19-4.06,49.25,49.25,0,0,0-9.94-.39,24.14,24.14,0,0,0-9.54,2.6,26,26,0,0,0-4,2.79,24.27,24.27,0,0,0-3.47,3.4,20.36,20.36,0,0,0-4.31,8.4,24.75,24.75,0,0,0-.3,9.23,42.82,42.82,0,0,0,2.29,8.82A107.15,107.15,0,0,0,132.3,203c2.74,4.84,5.5,9.34,8,13.53s4.68,8.07,6.41,11.62a51.8,51.8,0,0,1,3.7,9.5,21,21,0,0,1,.74,6.48,15.81,15.81,0,0,1-.24,1.71l-.11.58.07-.59a15.45,15.45,0,0,0,.1-1.7,24,24,0,0,0-.93-6.39,52.25,52.25,0,0,0-3.69-9.43c-1.73-3.53-3.93-7.41-6.41-11.59s-5.25-8.68-8-13.53a108,108,0,0,1-7.62-15.75,43.45,43.45,0,0,1-2.32-8.9,25.19,25.19,0,0,1,.3-9.39,20.9,20.9,0,0,1,4.39-8.58,25.18,25.18,0,0,1,3.53-3.47,26.55,26.55,0,0,1,4.13-2.85,24.63,24.63,0,0,1,9.74-2.67,49.55,49.55,0,0,1,10.05.39,162.61,162.61,0,0,1,19.06,4.05c6.11,1.58,12,3.16,17.64,4.38a112,112,0,0,0,16.07,2.47,55.91,55.91,0,0,0,13.69-.56,39.1,39.1,0,0,0,10-3.13,35.35,35.35,0,0,0,5.74-3.43c.63-.43,1.08-.83,1.4-1.07l.47-.38Z"/><path class="cls-2" d="M243.92,154.62l3.8,0,1.73,0-1.73,0-3.8,0-3.8,0-1.73,0,1.73,0Z"/><path class="cls-2" d="M243.92,155.41l-3.8,0-1.73,0,1.73,0,3.8,0,3.8,0,1.73,0-1.73,0Z"/><path class="cls-2" d="M243.92,156.31l-3.8,0-1.73,0,1.73,0,3.8,0,3.8,0,1.73,0-1.73,0Z"/><path class="cls-2" d="M243.92,157.22l-3.8,0-1.73,0,1.73,0,3.8,0,3.8,0,1.73,0-1.73,0Z"/><path class="cls-2" d="M243.92,158.12l-3.8,0-1.73,0,1.73,0,3.8,0,3.8,0,1.73,0-1.73,0Z"/><path class="cls-2" d="M243.92,159l-3.8,0-1.73,0,1.73,0,3.8,0,3.8,0,1.73,0-1.73,0Z"/><path class="cls-2" d="M243.92,159.93l-3.8,0-1.73,0,1.73,0,3.8,0,3.8,0,1.73,0-1.73,0Z"/><path class="cls-2" d="M243.92,160.84l-3.8,0-1.73,0,1.73,0,3.8,0,3.8,0,1.73,0-1.73,0Z"/><path class="cls-2" d="M243.92,161.74l-3.8,0-1.73,0,1.73,0,3.8,0,3.8,0,1.73,0-1.73,0Z"/><path class="cls-2" d="M243.92,162.65l-3.8,0-1.73,0,1.73,0,3.8,0,3.8,0,1.73,0-1.73,0Z"/><path class="cls-2" d="M243.92,163.55l-3.8,0-1.73,0,1.73,0,3.8,0,3.8,0,1.73,0-1.73,0Z"/><path class="cls-2" d="M282.66,204.05V194.4l-1.05,9.39A5.2,5.2,0,0,0,282.66,204.05Z"/><path class="cls-2" d="M274.44,194.92h.08c0-.36,0-.84,0-1.43a24.8,24.8,0,0,0-.61-4.63,25.07,25.07,0,0,0-.91-3h-1.13A24.33,24.33,0,0,1,274.44,194.92Z"/><path class="cls-2" d="M223.59,251.92c-.31.46-.49.72-.51.74l-1.14,1.62H248.7Z"/><path class="cls-2" d="M266,185.07c3.34,4.63,4.17,10.1,3.75,15.6a45.7,45.7,0,0,1-1.58,8.65c-.73,2.65-1.88,5.16-2.69,7.78-3.19,10.41.09,21.35,5.31,30.61a56.87,56.87,0,0,1-5.06-16.21,33.26,33.26,0,0,1,2.07-16.74,44.61,44.61,0,0,0,3.38-17.37,21,21,0,0,0-5.93-14.59,21.88,21.88,0,0,0-13.52-6.15C257.44,177.74,262.59,180.41,266,185.07Z"/><path class="cls-2" d="M156.7,175.13c5.81,4.57,13.43,6.45,20.79,7.24a101,101,0,0,0,19.44-.26c-3.27-.07-6.54,0-9.8-.15-13.16-.51-30.07-3.11-36.94-15.31A20.15,20.15,0,0,0,156.7,175.13Z"/><path class="cls-2" d="M139.74,212.63c.45-15.24.44-30.53-.46-45.76q-.3,5.22-.45,10.45c-.45,15.25-.45,30.53.45,45.77C139.49,219.6,139.64,216.12,139.74,212.63Z"/><path class="cls-2" d="M292.29,205.56c.46-13.71.41-27.48-.48-41.17-.21,3.19-.35,6.38-.46,9.58-.45,13.68-.43,27.41.46,41.08Q292.13,210.31,292.29,205.56Z"/><path class="cls-2" d="M293.69,273.2q-24-.18-47.91-.21-25.59,0-51.17,0-24,0-48,.26l-26,.26H121c10.62.1,21.23.24,31.84.32q24,.16,47.91.2,25.59.06,51.17,0,24,0,48-.25l26-.27h-.45Q309.62,273.3,293.69,273.2Z"/><path class="cls-2" d="M253.56,186c3.65,1.23,8.2,3.67,8.77,7.71s-3.2,7-6.57,8.55a33,33,0,0,1-11.6,2.71c5,.11,10.17-.58,14.5-3.18,3.68-2.2,6.36-6.21,4.43-10.33s-6.56-6.15-10.78-7.24c-8.09-2.1-19.05-1-24.88,5.26,3.31-2.87,7.67-4.28,12.06-4.81A32.53,32.53,0,0,1,253.56,186Z"/><path class="cls-2" d="M300.91,194.73c.19,3.65-.07,7.36-.09,11s0,7.41.09,11.11c0,1.59-.3,3.6.49,5.05A4,4,0,0,0,305,224a4,4,0,0,1-3.34-2c-.72-1.38-.38-3.22-.35-4.7.05-3.69.09-7.38.09-11.07s.09-7.39-.08-11.07a5.9,5.9,0,0,0-6.08-5.66A5.76,5.76,0,0,1,300.91,194.73Z"/><path class="cls-2" d="M325.9,221.29a5.48,5.48,0,0,0-2.67,0,95.86,95.86,0,0,0-10.62,2.24c4.09-.13,8.08-1,12.14-1.28a3.65,3.65,0,0,1,3.4,2.64A3.11,3.11,0,0,0,325.9,221.29Z"/><path class="cls-3" d="M68,297c23.72,59.51,84.27,101.84,155.27,101.84S354.82,356.49,378.54,297Z"/><path class="cls-2" d="M220.11,321.53a4.71,4.71,0,0,0-1.64-3.4,9.09,9.09,0,0,0-6.53-2.26,23.82,23.82,0,0,0-8.07,1.6,12.55,12.55,0,0,0-4,2.26c-1.75,1.51-2.62,3-2.62,4.52q0,3,3.85,5.45,1.44.87,5.78,2.85a63.67,63.67,0,0,1,6.36,3.22,11.27,11.27,0,0,1,4.19,4,8.2,8.2,0,0,1,1.15,3.91,9.78,9.78,0,0,1-1.69,5.24,25.39,25.39,0,0,1-8.75,8.22q-6.63,4-16,4-9,0-14.29-4.57a11.27,11.27,0,0,1-4.11-9,15.25,15.25,0,0,1,2.54-7.71,14.78,14.78,0,0,1,6.25-6,2,2,0,0,1,1.16-.2c.25.07,0,.39-.65,1a15.57,15.57,0,0,0-3.54,3.85,18,18,0,0,0-2.88,9.82,10,10,0,0,0,1.95,6.12q3.5,4.68,12.14,5.3c.65.06,1.62.1,2.9.1a27.34,27.34,0,0,0,5.25-.69,25.53,25.53,0,0,0,6.4-2.29q6.63-3.5,8.58-9.05a9.11,9.11,0,0,0,.62-3.19,8,8,0,0,0-3.14-6.17,35.15,35.15,0,0,0-6.91-3.57,52.3,52.3,0,0,1-7-3.42q-4-2.67-4-6.32c0-2.13,1.18-4.2,3.55-6.23q5.09-4.31,14.4-4.32a16.55,16.55,0,0,1,7.12,1.32,5.7,5.7,0,0,1,3.36,3.93,5.15,5.15,0,0,1,.11,1,4.7,4.7,0,0,1-1.86,3.6,9.76,9.76,0,0,1-3.44,1.64c-.62.17-1,.11-1-.21s.36-.71,1.29-.81a3.25,3.25,0,0,0,3-2.47A4.25,4.25,0,0,0,220.11,321.53Z"/><path class="cls-2" d="M232.25,354.12c0,1,.34,1.44,1,1.44q2.4,0,6.83-9.05c.24-.48.46-.66.65-.56a.47.47,0,0,1,.28.41,6,6,0,0,1-.59,1.47c-.4.8-.79,1.57-1.19,2.31s-1,1.7-1.72,2.9c-1.58,2.4-3.25,3.6-5,3.6a3.23,3.23,0,0,1-2.77-1.44,3.12,3.12,0,0,1-.47-1.82,9.88,9.88,0,0,1,.52-2.81,27.83,27.83,0,0,1,2.82-5.34,3.13,3.13,0,0,0,.57-1.47q0-.54-.87-.54c-.58,0-1.7.78-3.34,2.32a36.23,36.23,0,0,0-7.2,10.18c-.24.51-.88.77-1.9.77a4.91,4.91,0,0,0-1.75.31q9.76-20.31,14.14-28.33A10.75,10.75,0,0,1,234,326a2.47,2.47,0,0,1,1.77-.72,8.34,8.34,0,0,1,1.08.13,4.8,4.8,0,0,0,1.24.07q-1.55,1.6-5.53,8.82t-7.63,14.68a37.22,37.22,0,0,1,4.34-4.73,25.68,25.68,0,0,1,4.7-3.21,10,10,0,0,1,4.06-1.52,1.7,1.7,0,0,1,.57.1Q232.26,350.69,232.25,354.12Z"/><path class="cls-2" d="M249.52,338.44c2.5,0,3.76,1.58,3.76,4.73a11.11,11.11,0,0,1-1.14,4.63,18.32,18.32,0,0,1-4.32,6.07,2.5,2.5,0,0,0,2.42,1.28,3.5,3.5,0,0,0,2.62-1.39,13.63,13.63,0,0,0,2.21-2.8l1-1.77c.21-.38.47-.92.8-1.62s.52-1.13.59-1.29a.37.37,0,0,1,.36-.23q.51,0,.51.36a.82.82,0,0,1-.1.36l-.31.72c-.2.48-.36.82-.46,1s-.29.57-.54,1.1-.48.95-.67,1.26l-.77,1.24a12.71,12.71,0,0,1-.88,1.23c-.25.31-.57.65-.94,1a5.56,5.56,0,0,1-1.08.87,4.73,4.73,0,0,1-2.42.78,4.16,4.16,0,0,1-3.29-1.34,7.59,7.59,0,0,1-4.37,1.75c-2.5,0-3.76-1.58-3.76-4.74a11.07,11.07,0,0,1,1.14-4.62A17.11,17.11,0,0,1,244.2,341Q247,338.44,249.52,338.44Zm.57,1.59c-.93,0-2,.62-3.29,1.86a17.06,17.06,0,0,0-3.4,5,14.72,14.72,0,0,0-1.79,6.07c0,1.58.59,2.37,1.79,2.37a4.66,4.66,0,0,0,2.88-1.39,4.33,4.33,0,0,1-.82-2.52c.07-1.47.67-2.21,1.8-2.21a1.46,1.46,0,0,1,1.11.46,1.3,1.3,0,0,1,.43.85,3.25,3.25,0,0,1-.1.8,30.84,30.84,0,0,0,2-3.65,11.75,11.75,0,0,0,1.28-5.15C252,340.88,251.36,340,250.09,340Z"/><path class="cls-2" d="M272.81,342.45a12.81,12.81,0,0,1-1.18,5,21.9,21.9,0,0,1-3.27,5.24,10.48,10.48,0,0,1-5.06,3.45,10.18,10.18,0,0,1-2.6.31,7,7,0,0,1-3.21-.93l-4.88,12.19a6.05,6.05,0,0,1-1.45,2.15,2.08,2.08,0,0,1-1.28.52h-.74a7.65,7.65,0,0,1-.93-.16,4.41,4.41,0,0,0-1.21-.1c.75-.72,2.67-4.14,5.73-10.25s4.81-10.24,5.22-12.37q-.57.83-1.08.87c-.2,0-.2-.19,0-.59s.55-1.15,1-2.28a10.65,10.65,0,0,0,.93-4.09q0-1.87-.72-2.19a29,29,0,0,1,3.6-.48.62.62,0,0,1,.64.43,3.33,3.33,0,0,1,.12.93,20.16,20.16,0,0,1-1.43,7l1-1.65a27.42,27.42,0,0,1,2.69-3.85c.57-.58,1.18-1.19,1.83-1.8a4.26,4.26,0,0,1,2.88-1.44,2.76,2.76,0,0,1,.77.1Q272.8,339.12,272.81,342.45Zm-2.47-.51a3.49,3.49,0,0,0-.33-1.52,1.12,1.12,0,0,0-1.06-.69q-1.79,0-4.19,3.34a121.34,121.34,0,0,0-6.86,11.67,2.51,2.51,0,0,0,1.85.67c.79,0,1.9-.6,3.34-1.8a24.12,24.12,0,0,0,5.76-7.15A10.33,10.33,0,0,0,270.34,341.94Z"/><path class="cls-3" d="M223.28,399.78C126,399.78,46.77,320.6,46.77,223.27S126,46.77,223.28,46.77s176.5,79.18,176.5,176.5S320.6,399.78,223.28,399.78Zm0-343.42c-92,0-166.91,74.88-166.91,166.91s74.87,166.91,166.91,166.91,166.9-74.87,166.9-166.91S315.31,56.36,223.28,56.36Z"/><text class="cls-4" transform="translate(53.91 152.08) rotate(-63.41)">*</text><text class="cls-4" transform="matrix(0.57, -0.82, 0.82, 0.57, 69.35, 123.57)"> </text><text class="cls-4" transform="translate(81.04 106.82) rotate(-46.25)">A</text><text class="cls-4" transform="matrix(0.8, -0.6, 0.6, 0.8, 107.25, 81.17)">L</text><text class="cls-4" transform="translate(127.3 66.9) rotate(-29.08)">L</text><text class="cls-4" transform="translate(148.75 55.18) rotate(-19.48)">A</text><text class="cls-4" transform="translate(183.37 43.8) rotate(-8.06)">N</text><text class="cls-4" transform="translate(219.74 39.92) rotate(0.93)"> </text><text class="cls-4" transform="translate(240.33 40.51) rotate(8.36)">S</text><text class="cls-4" transform="translate(268.14 45.15) rotate(17.73)">E</text><text class="cls-4" transform="matrix(0.87, 0.5, -0.5, 0.87, 297.81, 54.66)">W</text><text class="cls-4" transform="translate(337.55 79.76) rotate(41.04)">I</text><text class="cls-4" transform="translate(355.73 95.82) rotate(50.48)">N</text><text class="cls-4" transform="translate(378.26 124.3) rotate(61.98)">G</text><text class="cls-4" transform="matrix(0.32, 0.95, -0.95, 0.32, 394.77, 158.22)"> </text><text class="cls-4" transform="matrix(0.14, 0.99, -0.99, 0.14, 401.78, 177.22)">M</text><text class="cls-4" transform="translate(407.09 223.72) rotate(94.51)">A</text><text class="cls-4" transform="translate(403.79 259.95) rotate(107.09)">C</text><text class="cls-4" transform="translate(389.69 301.58) rotate(119.88)">H</text><text class="cls-4" transform="matrix(-0.64, 0.77, -0.77, -0.64, 369.7, 333.8)">I</text><text class="cls-4" transform="translate(354.11 352.38) rotate(139)">N</text><text class="cls-4" transform="translate(326 375.52) rotate(149.55)">E</text><text class="cls-4" transform="translate(298.48 390.75) rotate(158.9)">S</text><text class="cls-4" transform="matrix(-0.97, 0.23, -0.23, -0.97, 271.71, 400.18)"> </text><text class="cls-4" transform="translate(251.76 404.74) rotate(174.89)">*</text><text class="cls-4" transform="translate(219.36 406.6) rotate(-176.95)"> </text><text class="cls-4" transform="matrix(-0.98, -0.19, 0.19, -0.98, 198.91, 405.31)">E</text><text class="cls-4" transform="matrix(-0.94, -0.35, 0.35, -0.94, 168.24, 398.42)">S</text><text class="cls-4" transform="matrix(-0.86, -0.5, 0.5, -0.86, 142.07, 388.09)">T</text><text class="cls-4" transform="matrix(-0.74, -0.67, 0.67, -0.74, 113.88, 371.37)">D</text><text class="cls-4" transform="translate(82.82 341.17) rotate(-128.17)"> </text><text class="cls-4" transform="translate(70.25 325.09) rotate(-119.43)">2</text><text class="cls-4" transform="translate(53.55 293.9) rotate(-108.33)">0</text><text class="cls-4" transform="translate(43.18 260.08) rotate(-97.22)">1</text><text class="cls-4" transform="translate(39.51 224.86) rotate(-86.29)">6</text><text class="cls-4" transform="matrix(0.22, -0.98, 0.98, 0.22, 43.02, 189.41)"> </text></g></g></svg>