<svg data-v-423bf9ae="" xmlns="http://www.w3.org/2000/svg" viewBox="0 0 6989.141202718102 5837" class="iconAbove"><!----><!----><!----><g data-v-423bf9ae="" id="7d8fcb90-9b72-4971-91ea-a4782296ab28" fill="#FFFFFF" transform="matrix(2.828854436110023,0,0,2.828854436110023,3342.944105087883,5776.172160215331)"><path d="M1.50 8.82L1.50 8.82L1.50 8.82Q1.40 8.82 1.37 8.69L1.37 8.69L1.37 8.69Q1.37 8.46 1.71 8.15L1.71 8.15L1.71 8.15Q2.04 7.84 2.25 7.76L2.25 7.76L2.25 7.76Q2.45 7.67 3.60 7.64L3.60 7.64L3.79 7.42L3.79 7.42Q8.05 2.51 9.70 2.51L9.70 2.51L9.70 2.51Q9.84 2.49 10.02 2.49L10.02 2.49L10.02 2.49Q10.99 2.49 10.99 2.95L10.99 2.95L10.99 2.95Q10.99 3.04 10.81 3.40L10.81 3.40L10.18 4.66L10.18 4.66Q9.73 5.56 9.31 6.48L9.31 6.48L9.31 6.48Q7.04 11.48 6.68 13.03L6.68 13.03L6.68 13.03Q6.68 13.15 6.39 13.15L6.39 13.15L6.39 13.15Q6.10 13.15 5.70 12.83L5.70 12.83L5.70 12.83Q5.29 12.52 5.29 12.28L5.29 12.28L5.29 12.28Q5.29 11.84 5.98 10.64L5.98 10.64L5.98 10.64Q6.66 9.44 6.66 9.07L6.66 9.07L6.66 9.07Q6.66 8.58 4.76 8.58L4.76 8.58L4.76 8.58Q4.48 8.58 3.89 8.61L3.89 8.61L3.36 9.31L3.36 9.31Q2.38 10.63 1.48 12.57L1.48 12.57L1.48 12.57Q1.33 12.92 0.55 12.92L0.55 12.92L0.55 12.92Q-0.24 12.92-0.24 12.70L-0.24 12.70L-0.24 12.70Q-0.24 12.54 0.64 11.35L0.64 11.35L0.64 11.35Q1.51 10.15 2.72 8.69L2.72 8.69L2.72 8.69Q2.51 8.72 2.18 8.75L2.18 8.75L2.18 8.75Q1.86 8.78 1.69 8.80L1.69 8.80L1.69 8.80Q1.51 8.82 1.50 8.82ZM7.31 7.01L7.31 7.01L7.31 7.01Q7.85 6.36 8.13 5.68L8.13 5.68L8.13 5.68Q8.40 5.01 8.40 4.77L8.40 4.77L8.40 4.77Q8.40 4.54 8.16 4.54L8.16 4.54L8.16 4.54Q7.74 4.54 6.78 5.43L6.78 5.43L6.78 5.43Q5.81 6.31 4.68 7.64L4.68 7.64L6.20 7.67L6.20 7.67Q6.76 7.67 7.31 7.01ZM8.18 12.88L8.18 12.88L8.18 12.88Q8.18 12.32 8.64 11.14L8.64 11.14L8.64 11.14Q9.10 9.95 9.67 8.83L9.67 8.83L9.67 8.83Q10.25 7.71 11.23 6.08L11.23 6.08L11.23 6.08Q12.68 3.65 14.22 1.27L14.22 1.27L14.22 1.27Q14.46 0.90 14.97 0.66L14.97 0.66L14.97 0.66Q15.47 0.42 15.88 0.42L15.88 0.42L15.88 0.42Q16.28 0.42 16.30 0.64L16.30 0.64L16.30 0.64Q16.30 0.71 16.21 0.80L16.21 0.80L16.21 0.80Q15.74 1.23 14.62 2.81L14.62 2.81L14.62 2.81Q13.50 4.38 12.24 6.41L12.24 6.41L12.24 6.41Q10.99 8.44 10.04 10.70L10.04 10.70L10.04 10.70Q9.10 12.95 9.10 14.38L9.10 14.38L9.10 14.38Q9.10 14.59 8.97 14.59L8.97 14.59L8.97 14.59Q8.74 14.59 8.57 14.41L8.57 14.41L8.57 14.41Q8.40 14.24 8.33 13.97L8.33 13.97L8.33 13.97Q8.18 13.44 8.18 12.88ZM10.56 12.88L10.56 12.88L10.56 12.88Q10.56 12.32 11.02 11.14L11.02 11.14L11.02 11.14Q11.48 9.95 12.05 8.83L12.05 8.83L12.05 8.83Q12.63 7.71 13.61 6.08L13.61 6.08L13.61 6.08Q15.06 3.65 16.60 1.27L16.60 1.27L16.60 1.27Q16.84 0.90 17.35 0.66L17.35 0.66L17.35 0.66Q17.85 0.42 18.26 0.42L18.26 0.42L18.26 0.42Q18.66 0.42 18.68 0.64L18.68 0.64L18.68 0.64Q18.68 0.71 18.59 0.80L18.59 0.80L18.59 0.80Q18.12 1.23 17.00 2.81L17.00 2.81L17.00 2.81Q15.88 4.38 14.62 6.41L14.62 6.41L14.62 6.41Q13.37 8.44 12.42 10.70L12.42 10.70L12.42 10.70Q11.48 12.95 11.48 14.38L11.48 14.38L11.48 14.38Q11.48 14.59 11.35 14.59L11.35 14.59L11.35 14.59Q11.12 14.59 10.95 14.41L10.95 14.41L10.95 14.41Q10.78 14.24 10.71 13.97L10.71 13.97L10.71 13.97Q10.56 13.44 10.56 12.88ZM16.10 11.86L16.10 11.86L16.13 11.56L16.13 11.56Q16.13 11.45 16.04 11.45L16.04 11.45L16.04 11.45Q15.92 11.45 15.53 11.82L15.53 11.82L15.53 11.82Q15.15 12.18 14.57 12.55L14.57 12.55L14.57 12.55Q13.99 12.92 13.40 12.92L13.40 12.92L13.40 12.92Q12.82 12.92 12.82 12.07L12.82 12.07L12.82 12.07Q12.82 11.00 13.75 9.62L13.75 9.62L13.75 9.62Q14.22 8.92 14.85 8.32L14.85 8.32L14.85 8.32Q15.47 7.73 16.37 7.34L16.37 7.34L16.37 7.34Q17.26 6.96 18.24 6.96L18.24 6.96L18.24 6.96Q18.76 6.96 19.12 7.23L19.12 7.23L19.12 7.23Q19.49 7.50 19.49 7.90L19.49 7.90L19.49 7.90Q19.49 8.30 19.25 8.30L19.25 8.30L19.25 8.30Q19.12 8.30 18.91 8.15L18.91 8.15L18.91 8.15Q18.52 7.88 17.68 7.88L17.68 7.88L17.68 7.88Q16.58 7.88 15.59 8.88L15.59 8.88L15.59 8.88Q14.60 9.88 14.60 10.86L14.60 10.86L14.60 10.86Q14.60 10.99 14.68 11.10L14.68 11.10L14.68 11.10Q14.76 11.21 14.90 11.21L14.90 11.21L14.90 11.21Q15.32 11.21 15.97 10.63L15.97 10.63L15.97 10.63Q16.63 10.05 17.26 8.96L17.26 8.96L17.26 8.96Q17.30 8.83 17.57 8.72L17.57 8.72L17.57 8.72Q17.84 8.61 18.20 8.61L18.20 8.61L18.20 8.61Q18.72 8.65 18.72 8.83L18.72 8.83L18.72 8.83Q18.72 8.85 18.61 9.01L18.61 9.01L18.61 9.01Q18.51 9.17 18.24 9.59L18.24 9.59L18.24 9.59Q17.98 10.01 17.49 10.97L17.49 10.97L17.49 10.97Q17.01 11.93 16.93 12.49L16.93 12.49L16.93 12.49Q16.91 12.66 16.79 12.66L16.79 12.66L16.79 12.66Q16.10 12.66 16.10 11.86ZM22.19 12.95L22.19 12.95L22.19 12.95Q21.80 12.95 21.80 12.77L21.80 12.77L21.83 12.68L21.83 12.68Q22.67 11.42 23.27 10.26L23.27 10.26L23.27 10.26Q23.87 9.09 23.87 8.74L23.87 8.74L23.87 8.74Q23.87 8.62 23.81 8.56L23.81 8.56L23.81 8.56Q23.76 8.50 23.65 8.48L23.65 8.48L23.65 8.48Q23.10 8.48 22.18 9.18L22.18 9.18L22.18 9.18Q21.27 9.88 20.57 10.63L20.57 10.63L20.57 10.63Q19.88 11.37 19.54 11.84L19.54 11.84L19.54 11.84Q19.21 12.31 18.54 12.31L18.54 12.31L18.54 12.31Q18.17 12.31 18.17 12.12L18.17 12.12L18.17 12.12Q18.17 11.76 19.54 9.55L19.54 9.55L19.54 9.55Q20.92 7.35 21.36 7.18L21.36 7.18L21.36 7.18Q21.60 7.04 21.97 7.04L21.97 7.04L21.97 7.04Q22.34 7.04 22.34 7.19L22.34 7.19L22.34 7.19Q22.34 7.34 22.01 7.83L22.01 7.83L22.01 7.83Q21.67 8.32 21.67 8.46L21.67 8.46L21.67 8.46Q21.70 8.57 21.79 8.57L21.79 8.57L21.79 8.57Q21.88 8.57 21.95 8.51L21.95 8.51L21.95 8.51Q24.02 6.90 25.26 6.90L25.26 6.90L25.26 6.90Q25.77 6.90 25.77 7.50L25.77 7.50L25.77 7.50Q25.77 7.90 25.19 9.20L25.19 9.20L25.19 9.20Q24.61 10.50 23.72 11.73L23.72 11.73L23.72 11.73Q22.83 12.95 22.19 12.95ZM35.20 9.07L35.20 9.07L35.20 9.07Q35.20 10.56 33.97 11.56L33.97 11.56L33.97 11.56Q32.75 12.56 30.84 12.56L30.84 12.56L30.84 12.56Q29.79 12.56 29.25 12.25L29.25 12.25L29.25 12.25Q29.19 12.22 29.12 12.22L29.12 12.22L29.12 12.22Q29.05 12.22 28.60 12.38L28.60 12.38L28.60 12.38Q28.15 12.53 27.70 12.53L27.70 12.53L27.70 12.53Q27.24 12.53 27.24 12.26L27.24 12.26L27.24 12.26Q27.24 11.90 28.13 10.37L28.13 10.37L28.13 10.37Q29.01 8.83 29.69 8.30L29.69 8.30L29.69 8.30Q29.99 8.08 30.27 8.08L30.27 8.08L30.27 8.08Q30.55 8.08 30.55 8.23L30.55 8.23L30.55 8.23Q30.55 8.26 30.36 8.58L30.36 8.58L30.36 8.58Q30.17 8.89 29.98 9.41L29.98 9.41L29.98 9.41Q29.79 9.93 29.79 10.30L29.79 10.30L29.79 10.30Q29.79 10.67 29.87 10.92L29.87 10.92L29.87 10.92Q29.95 11.17 30.26 11.43L30.26 11.43L30.26 11.43Q30.58 11.69 31.03 11.69L31.03 11.69L31.03 11.69Q31.49 11.69 31.88 11.58L31.88 11.58L31.88 11.58Q32.28 11.47 32.68 11.23L32.68 11.23L32.68 11.23Q33.07 10.99 33.32 10.53L33.32 10.53L33.32 10.53Q33.57 10.07 33.57 9.46L33.57 9.46L33.57 9.46Q33.57 8.85 33.19 8.22L33.19 8.22L33.19 8.22Q32.82 7.59 32.37 7.15L32.37 7.15L32.37 7.15Q31.92 6.71 31.54 6.14L31.54 6.14L31.54 6.14Q31.16 5.57 31.16 5.03L31.16 5.03L31.16 5.03Q31.16 4.49 31.45 4.03L31.45 4.03L31.45 4.03Q31.74 3.57 32.16 3.30L32.16 3.30L32.16 3.30Q32.59 3.02 33.14 2.84L33.14 2.84L33.14 2.84Q34.06 2.53 34.78 2.53L34.78 2.53L34.78 2.53Q35.49 2.53 35.83 2.60L35.83 2.60L35.83 2.60Q36.18 2.66 36.35 2.72L36.35 2.72L36.35 2.72Q36.53 2.77 36.57 2.77L36.57 2.77L36.57 2.77Q36.61 2.77 36.68 2.73L36.68 2.73L36.68 2.73Q37.10 2.49 37.59 2.49L37.59 2.49L37.59 2.49Q38.08 2.49 38.08 2.73L38.08 2.73L38.08 2.73Q38.08 3.12 37.15 4.49L37.15 4.49L37.15 4.49Q36.22 5.85 35.76 5.85L35.76 5.85L35.76 5.85Q35.38 5.85 35.38 5.68L35.38 5.68L35.38 5.68Q35.38 5.66 35.48 5.49L35.48 5.49L35.48 5.49Q35.78 4.93 35.78 4.21L35.78 4.21L35.78 4.21Q35.78 3.82 35.45 3.61L35.45 3.61L35.45 3.61Q35.11 3.39 34.75 3.39L34.75 3.39L34.75 3.39Q34.40 3.39 34.03 3.50L34.03 3.50L34.03 3.50Q33.66 3.61 33.28 3.95L33.28 3.95L33.28 3.95Q32.91 4.28 32.91 4.75L32.91 4.75L32.91 4.75Q32.91 5.22 33.27 5.73L33.27 5.73L33.27 5.73Q33.63 6.24 34.05 6.67L34.05 6.67L34.05 6.67Q34.48 7.10 34.84 7.75L34.84 7.75L34.84 7.75Q35.20 8.40 35.20 9.07ZM36.81 13.15L36.81 13.15L36.81 13.15Q35.99 13.15 35.62 12.66L35.62 12.66L35.62 12.66Q35.24 12.18 35.24 11.47L35.24 11.47L35.24 11.47Q35.24 10.77 35.55 9.99L35.55 9.99L35.55 9.99Q35.85 9.21 36.39 8.48L36.39 8.48L36.39 8.48Q36.93 7.76 37.81 7.26L37.81 7.26L37.81 7.26Q38.68 6.76 39.69 6.76L39.69 6.76L39.69 6.76Q40.15 6.76 40.39 7.05L40.39 7.05L40.39 7.05Q40.63 7.34 40.63 7.73L40.63 7.73L40.63 7.73Q40.63 8.54 40.05 9.24L40.05 9.24L40.05 9.24Q39.48 9.94 38.78 10.30L38.78 10.30L38.78 10.30Q38.08 10.67 37.54 10.72L37.54 10.72L37.54 10.72Q37.00 10.77 36.82 10.92L36.82 10.92L36.82 10.92Q36.64 11.07 36.64 11.54L36.64 11.54L36.64 11.54Q36.64 12.00 36.85 12.24L36.85 12.24L36.85 12.24Q37.06 12.47 37.27 12.56L37.27 12.56L37.27 12.56Q37.48 12.64 37.48 12.73L37.48 12.73L37.48 12.73Q37.48 12.92 37.27 13.03L37.27 13.03L37.27 13.03Q37.06 13.15 36.81 13.15ZM39.27 8.08L39.27 8.08L39.27 8.08Q39.27 7.64 38.88 7.64L38.88 7.64L38.88 7.64Q38.32 7.64 37.64 8.43L37.64 8.43L37.64 8.43Q36.96 9.21 36.96 9.84L36.96 9.84L36.96 9.84Q36.96 10.00 37.20 10.00L37.20 10.00L37.20 10.00Q37.77 10.00 38.52 9.41L38.52 9.41L38.52 9.41Q39.27 8.82 39.27 8.08ZM43.40 11.77L43.40 11.77L43.43 11.14L43.43 11.14Q43.43 10.91 43.33 10.91L43.33 10.91L43.33 10.91Q43.09 10.91 42.17 11.96L42.17 11.96L42.17 11.96Q41.82 12.36 41.36 12.69L41.36 12.69L41.36 12.69Q40.89 13.02 40.58 13.02L40.58 13.02L40.58 13.02Q40.26 13.02 40.14 12.82L40.14 12.82L40.14 12.82Q40.03 12.61 40.03 12.39L40.03 12.39L40.03 12.39Q40.03 11.44 40.43 10.12L40.43 10.12L40.43 10.12Q40.84 8.81 41.26 7.98L41.26 7.98L41.66 7.14L41.66 7.14Q41.96 6.71 42.69 6.71L42.69 6.71L42.69 6.71Q42.92 6.71 42.92 6.82L42.92 6.82L42.92 6.82Q42.92 6.85 42.80 7.08L42.80 7.08L42.80 7.08Q42.67 7.32 42.27 8.56L42.27 8.56L42.27 8.56Q41.86 9.80 41.86 10.31L41.86 10.31L41.86 10.31Q41.86 10.82 42.07 10.82L42.07 10.82L42.07 10.82Q42.28 10.82 42.59 10.57L42.59 10.57L42.59 10.57Q42.90 10.32 43.19 9.94L43.19 9.94L43.19 9.94Q43.82 9.13 44.14 8.60L44.14 8.60L44.30 8.34L44.46 8.18L44.46 8.18Q44.81 7.91 45.36 7.91L45.36 7.91L45.36 7.91Q45.60 7.91 45.60 8.02L45.60 8.02L45.60 8.02Q45.60 8.05 45.49 8.26L45.49 8.26L45.49 8.26Q45.37 8.47 45.10 9.33L45.10 9.33L45.10 9.33Q44.83 10.19 44.83 10.74L44.83 10.74L44.83 10.74Q44.83 11.28 45.15 11.28L45.15 11.28L45.15 11.28Q45.74 11.28 46.49 10.15L46.49 10.15L46.49 10.15Q47.25 9.02 47.25 8.36L47.25 8.36L47.25 8.36Q46.89 8.22 46.89 7.88L46.89 7.88L46.89 7.88Q46.89 7.53 47.16 7.18L47.16 7.18L47.16 7.18Q47.43 6.82 47.59 6.82L47.59 6.82L47.59 6.82Q47.60 6.82 47.80 6.88L47.80 6.88L47.80 6.88Q48.01 6.94 48.36 6.94L48.36 6.94L48.36 6.94Q48.71 6.94 48.99 6.86L48.99 6.86L48.99 6.86Q49.28 6.78 49.43 6.70L49.43 6.70L49.43 6.70Q49.57 6.62 49.60 6.62L49.60 6.62L49.60 6.62Q49.73 6.62 49.73 6.75L49.73 6.75L49.73 6.75Q49.73 6.87 49.69 7.04L49.69 7.04L49.69 7.04Q49.64 7.21 49.38 7.58L49.38 7.58L49.38 7.58Q49.13 7.95 48.68 8.13L48.68 8.13L48.68 8.13Q48.57 8.19 48.57 8.26L48.57 8.26L48.57 8.26Q48.57 8.61 48.36 8.99L48.36 8.99L48.36 8.99Q47.77 10.11 46.35 11.40L46.35 11.40L46.35 11.40Q44.94 12.68 44.09 12.68L44.09 12.68L44.09 12.68Q43.40 12.68 43.40 11.77ZM48.96 13.06L48.96 13.06L48.96 13.06Q48.76 13.06 48.52 12.82L48.52 12.82L48.52 12.82Q48.29 12.57 48.29 12.22L48.29 12.22L48.29 12.22Q48.29 12.03 49.20 10.24L49.20 10.24L49.20 10.24Q50.12 8.46 50.15 7.83L50.15 7.83L50.15 7.83Q50.15 7.63 50.40 7.46L50.40 7.46L50.40 7.46Q50.85 7.20 51.73 7.20L51.73 7.20L51.73 7.20Q51.90 7.20 52.09 7.26L52.09 7.26L52.09 7.26Q52.28 7.32 52.28 7.43L52.28 7.43L52.28 7.43Q52.28 7.49 52.23 7.53L52.23 7.53L52.23 7.53Q51.70 8.20 50.68 9.95L50.68 9.95L50.68 9.95Q49.66 11.70 49.14 12.80L49.14 12.80L49.14 12.80Q49.07 13.06 48.96 13.06ZM52.02 6.41L52.02 6.41L52.02 6.41Q51.41 6.41 51.38 5.92L51.38 5.92L51.38 5.91L51.38 5.91Q51.38 5.49 51.79 5.22L51.79 5.22L51.79 5.22Q52.21 4.96 52.61 4.96L52.61 4.96L52.61 4.96Q53.23 4.96 53.26 5.45L53.26 5.45L53.26 5.45Q53.26 5.87 52.85 6.14L52.85 6.14L52.85 6.14Q52.44 6.41 52.02 6.41ZM54.82 12.95L54.82 12.95L54.82 12.95Q54.43 12.95 54.43 12.77L54.43 12.77L54.46 12.68L54.46 12.68Q55.30 11.42 55.90 10.26L55.90 10.26L55.90 10.26Q56.50 9.09 56.50 8.74L56.50 8.74L56.50 8.74Q56.50 8.62 56.45 8.56L56.45 8.56L56.45 8.56Q56.39 8.50 56.28 8.48L56.28 8.48L56.28 8.48Q55.73 8.48 54.82 9.18L54.82 9.18L54.82 9.18Q53.90 9.88 53.21 10.63L53.21 10.63L53.21 10.63Q52.51 11.37 52.18 11.84L52.18 11.84L52.18 11.84Q51.84 12.31 51.17 12.31L51.17 12.31L51.17 12.31Q50.81 12.31 50.81 12.12L50.81 12.12L50.81 12.12Q50.81 11.76 52.18 9.55L52.18 9.55L52.18 9.55Q53.55 7.35 54.00 7.18L54.00 7.18L54.00 7.18Q54.24 7.04 54.61 7.04L54.61 7.04L54.61 7.04Q54.98 7.04 54.98 7.19L54.98 7.19L54.98 7.19Q54.98 7.34 54.64 7.83L54.64 7.83L54.64 7.83Q54.31 8.32 54.31 8.46L54.31 8.46L54.31 8.46Q54.33 8.57 54.42 8.57L54.42 8.57L54.42 8.57Q54.52 8.57 54.59 8.51L54.59 8.51L54.59 8.51Q56.66 6.90 57.89 6.90L57.89 6.90L57.89 6.90Q58.41 6.90 58.41 7.50L58.41 7.50L58.41 7.50Q58.41 7.90 57.83 9.20L57.83 9.20L57.83 9.20Q57.25 10.50 56.36 11.73L56.36 11.73L56.36 11.73Q55.47 12.95 54.82 12.95ZM56.10 19.39L56.10 19.39L56.10 19.39Q56.70 19.39 57.99 17.45L57.99 17.45L57.99 17.45Q59.29 15.51 60.30 13.58L60.30 13.58L60.30 13.58Q61.31 11.65 61.31 11.45L61.31 11.45L61.31 11.45Q61.31 11.24 61.19 11.24L61.19 11.24L61.19 11.24Q61.08 11.24 60.82 11.46L60.82 11.46L60.82 11.46Q60.55 11.68 60.25 11.94L60.25 11.94L60.25 11.94Q59.95 12.21 59.48 12.43L59.48 12.43L59.48 12.43Q59.01 12.64 58.55 12.64L58.55 12.64L58.55 12.64Q57.97 12.64 57.97 11.79L57.97 11.79L57.97 11.79Q57.97 11.10 58.35 10.24L58.35 10.24L58.35 10.24Q58.73 9.38 59.39 8.58L59.39 8.58L59.39 8.58Q60.05 7.77 61.11 7.22L61.11 7.22L61.11 7.22Q62.17 6.68 63.39 6.68L63.39 6.68L63.39 6.68Q63.70 6.68 64.06 6.79L64.06 6.79L64.06 6.79Q64.79 7.01 64.79 7.60L64.79 7.60L64.79 7.60Q64.79 8.02 64.55 8.02L64.55 8.02L64.55 8.02Q64.48 8.02 64.32 7.92L64.32 7.92L64.32 7.92Q63.81 7.59 62.76 7.59L62.76 7.59L62.76 7.59Q61.71 7.59 60.73 8.63L60.73 8.63L60.73 8.63Q59.74 9.67 59.74 10.67L59.74 10.67L59.74 10.67Q59.74 11.02 60.03 11.02L60.03 11.02L60.03 11.02Q60.48 11.02 61.27 10.38L61.27 10.38L61.27 10.38Q62.06 9.74 62.85 8.50L62.85 8.50L62.85 8.50Q62.89 8.30 63.49 8.30L63.49 8.30L63.49 8.30Q64.09 8.30 64.09 8.51L64.09 8.51L64.09 8.51Q64.09 8.67 63.12 10.52L63.12 10.52L63.12 10.52Q62.15 12.38 61.47 13.57L61.47 13.57L61.47 13.57Q60.80 14.77 59.86 16.23L59.86 16.23L59.86 16.23Q58.91 17.68 58.07 18.73L58.07 18.73L58.07 18.73Q57.23 19.78 56.32 20.50L56.32 20.50L56.32 20.50Q55.41 21.22 54.70 21.22L54.70 21.22L54.70 21.22Q54.11 21.22 54.11 20.24L54.11 20.24L54.11 20.24Q54.11 19.26 54.68 18.07L54.68 18.07L54.68 18.07Q55.26 16.87 56.06 15.87L56.06 15.87L56.06 15.87Q56.87 14.87 57.78 14.17L57.78 14.17L57.78 14.17Q58.69 13.47 59.30 13.47L59.30 13.47L59.35 13.47L59.35 13.47Q59.51 13.47 59.51 13.57L59.51 13.57L59.51 13.57Q59.51 13.66 59.35 13.75L59.35 13.75L59.35 13.75Q58.81 14.01 57.99 14.93L57.99 14.93L57.99 14.93Q57.18 15.85 56.51 17.04L56.51 17.04L56.51 17.04Q55.85 18.23 55.85 19.04L55.85 19.04L55.85 19.05L55.85 19.05Q55.85 19.39 56.10 19.39ZM71.41 10.85L71.41 10.85L71.41 10.85Q71.23 11.19 70.81 11.19L70.81 11.19L70.81 11.19Q70.38 11.19 70.25 11.07L70.25 11.07L70.25 11.07Q70.11 10.95 70.11 10.44L70.11 10.44L70.11 10.44Q70.11 9.93 70.66 8.06L70.66 8.06L70.66 8.06Q71.20 6.19 71.20 5.90L71.20 5.90L71.20 5.90Q71.20 5.61 71.09 5.61L71.09 5.61L71.09 5.61Q70.92 5.61 70.67 5.90L70.67 5.90L70.67 5.90Q70.42 6.19 70.25 6.47L70.25 6.47L70.08 6.76L70.08 6.76Q69.19 8.22 68.45 9.68L68.45 9.68L68.45 9.68Q67.72 11.14 67.38 11.82L67.38 11.82L67.38 11.82Q67.03 12.50 66.78 12.68L66.78 12.68L66.78 12.68Q66.53 12.87 66.06 12.87L66.06 12.87L66.06 12.87Q65.59 12.87 65.59 12.66L65.59 12.66L65.59 12.61L65.59 12.61Q65.59 12.47 66.32 11.31L66.32 11.31L66.32 11.31Q69.01 7.04 70.36 4.34L70.36 4.34L70.36 4.34Q70.69 3.70 70.69 3.14L70.69 3.14L70.69 2.97L70.69 2.97Q70.69 2.72 71.27 2.56L71.27 2.56L71.27 2.56Q71.85 2.41 72.23 2.41L72.23 2.41L72.69 2.41L72.69 2.41Q73.28 2.41 73.56 2.63L73.56 2.63L73.56 2.63Q73.68 2.72 73.68 2.86L73.68 2.86L73.68 2.86Q73.68 3.00 73.13 4.80L73.13 4.80L73.13 4.80Q72.58 6.59 72.58 6.96L72.58 6.96L72.58 6.96Q72.58 7.32 72.69 7.32L72.69 7.32L72.69 7.32Q73.04 7.32 73.92 6.46L73.92 6.46L73.92 6.46Q74.80 5.60 75.94 4.40L75.94 4.40L75.94 4.40Q76.86 3.39 77.70 2.66L77.70 2.66L77.70 2.66Q77.88 2.49 78.13 2.46L78.13 2.46L78.13 2.46Q78.68 2.38 79.30 2.38L79.30 2.38L79.30 2.38Q79.93 2.38 79.93 2.66L79.93 2.66L79.93 2.66Q79.93 2.72 79.92 2.74L79.92 2.74L79.92 2.74Q79.91 2.77 79.39 3.59L79.39 3.59L79.39 3.59Q78.88 4.41 78.13 5.62L78.13 5.62L78.13 5.62Q77.39 6.83 76.65 8.13L76.65 8.13L76.65 8.13Q75.91 9.42 75.39 10.59L75.39 10.59L75.39 10.59Q74.87 11.76 74.87 12.31L74.87 12.31L74.87 12.31Q74.75 12.54 74.48 12.54L74.48 12.54L74.48 12.54Q73.09 12.54 73.09 12.05L73.09 12.05L73.09 12.05Q73.09 10.92 75.91 6.61L75.91 6.61L75.91 6.61Q76.27 6.06 76.27 5.92L76.27 5.92L76.27 5.92Q76.27 5.78 76.06 5.78L76.06 5.78L76.06 5.78Q75.53 5.78 73.82 7.68L73.82 7.68L73.82 7.68Q72.11 9.58 71.41 10.85ZM79.34 11.86L79.34 11.86L79.37 11.56L79.37 11.56Q79.37 11.45 79.28 11.45L79.28 11.45L79.28 11.45Q79.16 11.45 78.77 11.82L78.77 11.82L78.77 11.82Q78.39 12.18 77.81 12.55L77.81 12.55L77.81 12.55Q77.22 12.92 76.64 12.92L76.64 12.92L76.64 12.92Q76.06 12.92 76.06 12.07L76.06 12.07L76.06 12.07Q76.06 11.00 76.99 9.62L76.99 9.62L76.99 9.62Q77.46 8.92 78.09 8.32L78.09 8.32L78.09 8.32Q78.71 7.73 79.60 7.34L79.60 7.34L79.60 7.34Q80.50 6.96 81.48 6.96L81.48 6.96L81.48 6.96Q82.00 6.96 82.36 7.23L82.36 7.23L82.36 7.23Q82.73 7.50 82.73 7.90L82.73 7.90L82.73 7.90Q82.73 8.30 82.49 8.30L82.49 8.30L82.49 8.30Q82.36 8.30 82.15 8.15L82.15 8.15L82.15 8.15Q81.76 7.88 80.92 7.88L80.92 7.88L80.92 7.88Q79.81 7.88 78.83 8.88L78.83 8.88L78.83 8.88Q77.84 9.88 77.84 10.86L77.84 10.86L77.84 10.86Q77.84 10.99 77.92 11.10L77.92 11.10L77.92 11.10Q77.99 11.21 78.13 11.21L78.13 11.21L78.13 11.21Q78.55 11.21 79.21 10.63L79.21 10.63L79.21 10.63Q79.87 10.05 80.50 8.96L80.50 8.96L80.50 8.96Q80.54 8.83 80.81 8.72L80.81 8.72L80.81 8.72Q81.07 8.61 81.44 8.61L81.44 8.61L81.44 8.61Q81.96 8.65 81.96 8.83L81.96 8.83L81.96 8.83Q81.96 8.85 81.85 9.01L81.85 9.01L81.85 9.01Q81.75 9.17 81.48 9.59L81.48 9.59L81.48 9.59Q81.21 10.01 80.73 10.97L80.73 10.97L80.73 10.97Q80.25 11.93 80.16 12.49L80.16 12.49L80.16 12.49Q80.15 12.66 80.02 12.66L80.02 12.66L80.02 12.66Q79.34 12.66 79.34 11.86ZM85.82 7.24L85.82 7.24L86.06 7.25L86.06 7.25Q86.30 7.25 86.44 7.01L86.44 7.01L86.44 7.01Q86.55 6.71 87.26 6.71L87.26 6.71L87.26 6.71Q87.98 6.72 87.98 7.01L87.98 7.01L87.98 7.01Q87.98 7.06 87.65 7.38L87.65 7.38L87.65 7.38Q87.33 7.70 86.87 8.30L86.87 8.30L86.87 8.30Q86.41 8.89 86.16 9.49L86.16 9.49L86.16 9.49Q86.13 9.58 85.94 9.58L85.94 9.58L85.94 9.58Q85.75 9.58 85.64 9.40L85.64 9.40L85.64 9.40Q85.53 9.23 85.53 9.02L85.53 9.02L85.53 9.02Q85.53 8.82 85.58 8.67L85.58 8.67L85.58 8.67Q85.62 8.51 85.62 8.44L85.62 8.44L85.62 8.44Q85.62 8.18 85.33 8.18L85.33 8.18L85.33 8.18Q84.52 8.18 83.89 9.11L83.89 9.11L83.89 9.11Q83.26 10.04 83.26 10.81L83.26 10.81L83.26 10.81Q83.26 11.83 84.25 11.83L84.25 11.83L84.25 11.83Q84.85 11.83 85.30 11.55L85.30 11.55L85.30 11.55Q85.40 11.47 85.50 11.47L85.50 11.47L85.50 11.47Q85.65 11.47 85.65 11.62L85.65 11.62L85.65 11.62Q85.65 11.98 84.99 12.47L84.99 12.47L84.99 12.47Q84.34 12.95 83.42 12.95L83.42 12.95L83.42 12.95Q82.50 12.95 82.16 12.50L82.16 12.50L82.16 12.50Q81.82 12.04 81.82 11.49L81.82 11.49L81.82 11.49Q81.82 10.93 82.12 10.23L82.12 10.23L82.12 10.23Q82.42 9.53 82.92 8.86L82.92 8.86L82.92 8.86Q83.41 8.18 84.20 7.71L84.20 7.71L84.20 7.71Q84.98 7.24 85.82 7.24ZM92.54 7.17L92.54 7.17L92.54 7.17Q93.14 7.17 93.14 7.87L93.14 7.87L93.14 7.87Q93.14 8.57 92.65 9.63L92.65 9.63L92.65 9.63Q91.94 11.13 91.03 12.22L91.03 12.22L91.03 12.22Q90.59 12.74 89.94 12.74L89.94 12.74L89.94 12.74Q89.73 12.74 89.73 12.63L89.73 12.63L89.78 12.47L89.78 12.47Q90.44 11.51 90.95 10.48L90.95 10.48L90.95 10.48Q91.46 9.45 91.46 8.99L91.46 8.99L91.46 8.99Q91.46 8.90 91.41 8.85L91.41 8.85L91.41 8.85Q91.36 8.79 91.25 8.78L91.25 8.78L91.25 8.78Q90.68 8.78 89.71 9.72L89.71 9.72L89.71 9.72Q88.73 10.65 88.03 11.61L88.03 11.61L88.03 11.61Q87.32 12.56 87.12 12.93L87.12 12.93L87.12 12.93Q86.91 13.30 86.70 13.38L86.70 13.38L86.70 13.38Q86.49 13.45 86.02 13.45L86.02 13.45L86.02 13.45Q85.54 13.45 85.54 13.29L85.54 13.29L85.54 13.29Q85.54 13.23 85.67 13.02L85.67 13.02L85.67 13.02Q85.81 12.81 86.68 11.13L86.68 11.13L86.68 11.13Q87.56 9.45 88.53 7.71L88.53 7.71L88.53 7.71Q89.50 5.96 90.66 4.14L90.66 4.14L90.66 4.14Q91.81 2.32 92.97 1.17L92.97 1.17L92.97 1.17Q94.12 0.01 94.98 0.01L94.98 0.01L94.98 0.01Q95.63 0.01 95.63 0.78L95.63 0.78L95.63 0.78Q95.63 2.27 94.28 3.96L94.28 3.96L94.28 3.96Q92.93 5.66 91.81 6.17L91.81 6.17L91.81 6.17Q91.56 6.29 91.29 6.29L91.29 6.29L91.29 6.29Q91.01 6.29 91.01 6.16L91.01 6.16L91.10 6.02L91.10 6.02Q92.47 5.07 93.28 3.82L93.28 3.82L93.28 3.82Q94.08 2.58 94.08 2.07L94.08 2.07L94.08 2.07Q94.08 1.90 94.04 1.84L94.04 1.84L94.04 1.84Q94.00 1.78 93.84 1.78L93.84 1.78L93.84 1.78Q93.34 1.78 92.20 3.42L92.20 3.42L92.20 3.42Q91.06 5.05 90.15 6.79L90.15 6.79L90.15 6.79Q89.24 8.53 89.24 8.90L89.24 8.90L89.24 8.90Q89.24 9.06 89.34 9.06L89.34 9.06L89.34 9.06Q89.45 9.06 89.63 8.92L89.63 8.92L89.63 8.92Q89.84 8.72 90.17 8.43L90.17 8.43L90.17 8.43Q90.50 8.13 91.27 7.65L91.27 7.65L91.27 7.65Q92.05 7.17 92.54 7.17ZM93.04 13.06L93.04 13.06L93.04 13.06Q92.85 13.06 92.61 12.82L92.61 12.82L92.61 12.82Q92.37 12.57 92.37 12.22L92.37 12.22L92.37 12.22Q92.37 12.03 93.29 10.24L93.29 10.24L93.29 10.24Q94.21 8.46 94.23 7.83L94.23 7.83L94.23 7.83Q94.23 7.63 94.49 7.46L94.49 7.46L94.49 7.46Q94.93 7.20 95.82 7.20L95.82 7.20L95.82 7.20Q95.98 7.20 96.17 7.26L96.17 7.26L96.17 7.26Q96.36 7.32 96.36 7.43L96.36 7.43L96.36 7.43Q96.36 7.49 96.32 7.53L96.32 7.53L96.32 7.53Q95.79 8.20 94.77 9.95L94.77 9.95L94.77 9.95Q93.74 11.70 93.23 12.80L93.23 12.80L93.23 12.80Q93.16 13.06 93.04 13.06ZM96.11 6.41L96.11 6.41L96.11 6.41Q95.49 6.41 95.47 5.92L95.47 5.92L95.47 5.91L95.47 5.91Q95.47 5.49 95.88 5.22L95.88 5.22L95.88 5.22Q96.29 4.96 96.70 4.96L96.70 4.96L96.70 4.96Q97.31 4.96 97.34 5.45L97.34 5.45L97.34 5.45Q97.34 5.87 96.94 6.14L96.94 6.14L96.94 6.14Q96.53 6.41 96.11 6.41ZM98.91 12.95L98.91 12.95L98.91 12.95Q98.52 12.95 98.52 12.77L98.52 12.77L98.55 12.68L98.55 12.68Q99.39 11.42 99.99 10.26L99.99 10.26L99.99 10.26Q100.59 9.09 100.59 8.74L100.59 8.74L100.59 8.74Q100.59 8.62 100.53 8.56L100.53 8.56L100.53 8.56Q100.48 8.50 100.37 8.48L100.37 8.48L100.37 8.48Q99.82 8.48 98.90 9.18L98.90 9.18L98.90 9.18Q97.99 9.88 97.29 10.63L97.29 10.63L97.29 10.63Q96.60 11.37 96.26 11.84L96.26 11.84L96.26 11.84Q95.93 12.31 95.26 12.31L95.26 12.31L95.26 12.31Q94.89 12.31 94.89 12.12L94.89 12.12L94.89 12.12Q94.89 11.76 96.26 9.55L96.26 9.55L96.26 9.55Q97.64 7.35 98.08 7.18L98.08 7.18L98.08 7.18Q98.32 7.04 98.69 7.04L98.69 7.04L98.69 7.04Q99.06 7.04 99.06 7.19L99.06 7.19L99.06 7.19Q99.06 7.34 98.73 7.83L98.73 7.83L98.73 7.83Q98.39 8.32 98.39 8.46L98.39 8.46L98.39 8.46Q98.42 8.57 98.51 8.57L98.51 8.57L98.51 8.57Q98.60 8.57 98.67 8.51L98.67 8.51L98.67 8.51Q100.74 6.90 101.98 6.90L101.98 6.90L101.98 6.90Q102.49 6.90 102.49 7.50L102.49 7.50L102.49 7.50Q102.49 7.90 101.91 9.20L101.91 9.20L101.91 9.20Q101.33 10.50 100.44 11.73L100.44 11.73L100.44 11.73Q99.55 12.95 98.91 12.95ZM103.61 13.15L103.61 13.15L103.61 13.15Q102.80 13.15 102.42 12.66L102.42 12.66L102.42 12.66Q102.05 12.18 102.05 11.47L102.05 11.47L102.05 11.47Q102.05 10.77 102.35 9.99L102.35 9.99L102.35 9.99Q102.66 9.21 103.20 8.48L103.20 8.48L103.20 8.48Q103.74 7.76 104.62 7.26L104.62 7.26L104.62 7.26Q105.49 6.76 106.50 6.76L106.50 6.76L106.50 6.76Q106.96 6.76 107.20 7.05L107.20 7.05L107.20 7.05Q107.44 7.34 107.44 7.73L107.44 7.73L107.44 7.73Q107.44 8.54 106.86 9.24L106.86 9.24L106.86 9.24Q106.29 9.94 105.59 10.30L105.59 10.30L105.59 10.30Q104.89 10.67 104.35 10.72L104.35 10.72L104.35 10.72Q103.81 10.77 103.63 10.92L103.63 10.92L103.63 10.92Q103.45 11.07 103.45 11.54L103.45 11.54L103.45 11.54Q103.45 12.00 103.66 12.24L103.66 12.24L103.66 12.24Q103.87 12.47 104.08 12.56L104.08 12.56L104.08 12.56Q104.29 12.64 104.29 12.73L104.29 12.73L104.29 12.73Q104.29 12.92 104.08 13.03L104.08 13.03L104.08 13.03Q103.87 13.15 103.61 13.15ZM106.08 8.08L106.08 8.08L106.08 8.08Q106.08 7.64 105.69 7.64L105.69 7.64L105.69 7.64Q105.13 7.64 104.45 8.43L104.45 8.43L104.45 8.43Q103.77 9.21 103.77 9.84L103.77 9.84L103.77 9.84Q103.77 10.00 104.01 10.00L104.01 10.00L104.01 10.00Q104.58 10.00 105.33 9.41L105.33 9.41L105.33 9.41Q106.08 8.82 106.08 8.08Z"></path></g><!----><g data-v-423bf9ae="" id="3c3365eb-d7d6-417d-b712-fe5362983246" transform="matrix(8.002222357855903,0,0,8.002222357855903,-800.493041083444,-847.8360348137767)" stroke="none" fill="#D6CA82"><path d="M871.1 708v-11.9c0-124.4 0-248.7-.2-373.1 0-8.3-.6-16.8-2.1-25-13.7-74.1-73.8-124.1-149.3-124.1H189.3c-25.3 0-45.8 9.9-60.2 30.8-10 14.4-16.1 29.8-15.1 48.5 1.4 27.4 0 54.9.4 82.3.6 50.2 21.2 89.6 64.1 116.6 3.8 2.4 8.8 3.6 13.3 3.7 27.5.3 54.9.3 82.3 0 4.5 0 9.5-1.3 13.3-3.6 37.1-22.7 57.3-56.3 63.7-100.2H541.2c29.1 0 47.7 18.5 47.8 47.8.1 66.7.1 133.3 0 200 0 4.3-1.1 8.9-2.5 13-12 32.7-29.6 62-52.4 88.4-4.4 5.1-8.8 7.2-15.6 7.2-97.1-.2-269.2-.2-359.4-.2-32.6 0-59 26.4-59 59 0 3.2.3 6.3.7 9.3H900V737c0-16-13-29-28.9-29zm-60.2-59.7h-162V500.7h162v147.6zM729.5 426c-45.2-.3-81.3-36.8-81.2-82.2 0-44.6 37.5-81.3 82.6-80.9 44.6.3 80.7 37 80.5 81.9-.2 45.5-36.6 81.5-81.9 81.2zM105.2 791.5c3 6.5 7.1 12.4 12 17.4 10.7 10.7 25.4 17.3 41.7 17.3H871c16 0 29-13 29-29v-5.7H105.2z"></path><path d="M281.5 469.3v18.9c0 3.6-2.9 6.5-6.5 6.5h-9.7v9.2c0 3.6-2.9 6.5-6.5 6.5h-20.2v96.9L227 634.5v-124h-21.3c-3.6 0-6.5-2.9-6.5-6.5v-9.2h-8.6c-3.6 0-6.5-2.9-6.5-6.5v-18.9c0-3.6 2.9-6.5 6.5-6.5H275c3.6-.1 6.5 2.9 6.5 6.4zM400.6 118.9h-45.1c-2.1 0-3.8-1.4-3.8-3.1l-7.1-6.7c0-1.7 1.7-3.1 3.8-3.1h59.4c2.1 0 3.8 1.4 3.8 3.1l-7.1 6.7c-.1 1.7-1.9 3.1-3.9 3.1zM355.4 153.1h45.1c2.1 0 3.8 1.4 3.8 3.1l7.1 6.7c0 1.7-1.7 3.1-3.8 3.1h-59.4c-2.1 0-3.8-1.4-3.8-3.1l7.1-6.7c.1-1.7 1.8-3.1 3.9-3.1zM353.803 122.145l48.5.11-.004 1.8-48.5-.11zM353.803 128.046l48.5.11-.004 1.8-48.5-.11zM353.803 134.446l48.5.11-.004 1.8-48.5-.11zM353.703 140.945l48.5.11-.004 1.8-48.5-.11zM353.703 147.446l48.5.11-.004 1.8-48.5-.11z"></path><g><path d="M643.5 118.9h-45.1c-2.1 0-3.8-1.4-3.8-3.1l-7.1-6.7c0-1.7 1.7-3.1 3.8-3.1h59.4c2.1 0 3.8 1.4 3.8 3.1l-7.1 6.7c-.1 1.7-1.8 3.1-3.9 3.1zM598.4 153.1h45.1c2.1 0 3.8 1.4 3.8 3.1l7.1 6.7c0 1.7-1.7 3.1-3.8 3.1h-59.4c-2.1 0-3.8-1.4-3.8-3.1l7.1-6.7c.1-1.7 1.8-3.1 3.9-3.1zM596.804 122.146l48.5.11-.005 1.8-48.5-.11zM596.804 128.046l48.5.11-.005 1.8-48.5-.11zM596.704 134.445l48.5.11-.004 1.8-48.5-.11zM596.704 140.945l48.5.11-.004 1.8-48.5-.11zM596.703 147.446l48.5.11-.004 1.8-48.5-.11z"></path></g><g><path d="M973.5 401.4v39.2c0 1.9-4.6.2-8.6-2.7l-13.3-9.4c-.6-.5-1.1-1.2-1.1-1.8v-.7H917v15c0 6.6-5.4 12-12 12h-14c-6.6 0-12-5.4-12-12V329c0-6.6 5.4-12 12-12h14c6.6 0 12 5.4 12 12v86h33.5c.1-.5.5-1.1 1.1-1.5l13.3-9.4c4-2.9 8.6-4.6 8.6-2.7z"></path></g></g><!----></svg>